<svg xmlns="http://www.w3.org/2000/svg" xmlns:xlink="http://www.w3.org/1999/xlink" viewBox="0 0 205 165">
  <defs>
    <linearGradient id="b" x1="1893.3" x2="1901.9" y1="-2382" y2="-2382" gradientTransform="matrix(1 0 0 -1 -1788 -2321)" gradientUnits="userSpaceOnUse">
      <stop offset="0" stop-color="#6176b9"/>
      <stop offset=".7" stop-color="#394a9f"/>
    </linearGradient>
    <linearGradient id="c" x1="1920.3" x2="1928.1" y1="-2379.4" y2="-2379.4" gradientTransform="matrix(1 0 0 -1 -1788 -2321)" gradientUnits="userSpaceOnUse">
      <stop offset="0" stop-color="#6176b9"/>
      <stop offset=".7" stop-color="#394a9f"/>
    </linearGradient>
    <clipPath id="a">
      <circle cx="127.3" cy="79" r="52"/>
    </clipPath>
    <path id="d" d="M22.6 180.6V156h8.9c8.5 0 12.3 6.2 12.3 12 0 6.3-3.8 12.6-12.3 12.6h-9zm2.8-2.9h6c6.6 0 9.6-4.9 9.6-9.7a9 9 0 00-9.5-9.3h-6.1v19zm29.7 3.2c-4.6 0-7.5-3.2-7.5-8v-9.6h2.6v9.5c0 3.5 2 5.6 5.5 5.6 3.2 0 5.5-2.5 5.5-5.8v-9.3h2.6v17.3h-2.4l-.1-3-.5.5a7.2 7.2 0 01-5.8 2.8zm21.7 0c-4.5 0-9-2.8-9-9 0-5.3 3.6-8.9 9-8.9 2.4 0 4.4.8 6.2 2.5l-1.7 1.7a6.5 6.5 0 00-4.4-1.7 6.1 6.1 0 00-6.4 6.4c0 4.5 3.2 6.5 6.3 6.5 1.8 0 3.4-.7 4.6-1.8l1.7 1.7a8.8 8.8 0 01-6.3 2.6zm20.9-.3l-8.5-8.5v8.5h-2.6V156h2.7V171l7.3-7.6h3.5l-8.2 8.1 9.1 9.1z"/>
  </defs>
  <circle cx="104.8" cy="60.2" r="57.5" fill="#DE5833" stroke="#DE5833" stroke-width="5"/>
  <g transform="translate(-22.5 -18.8)">
    <g clip-path="url(#a)">
      <path fill="#D5D7D8" d="M138.5 132.5c-2.5-4.8-5-9.3-6.4-12.3-4-8-8-19.1-6.2-26.3.4-1.3-3.7-48.5-6.6-50-3.2-1.8-10-4-13.7-4.6-2.5-.4-3 .3-4.1.5 1 0 5.7 2.4 6.6 2.5-.9.6-3.6 0-5.3.8-.9.4-1.5 1.8-1.5 2.5 4.9-.5 12.5 0 17 2-3.5.4-9 .9-11.4 2.1-6.8 3.6-9.8 12-8 22.2 1.8 10 9.7 46.8 12.2 59.1 2.5 12.3 31.5 9.7 27.3 1.5z"/>
      <path fill="#FFF" d="M142.1 133.7c-3-6-6-11.7-7.9-15.2-4-8-7.9-19.1-6-26.3.2-1.3.2-6.7 1.3-7.4 8.4-5.5 7.8-.2 11.2-2.6a9.3 9.3 0 003.8-5c2.1-7.5-3-20.7-8.8-26.5-1.9-1.9-4.8-3-8-3.7a17.8 17.8 0 00-6.2-4.9 28.9 28.9 0 00-18.2-2.8c1 0 3.2 2.1 4.1 2.2-1.3 1-5 .9-5 3 5-.6 10.3.2 14.9 2.2-3.6.4-7 1.3-9.4 2.6-6.8 3.6-8.6 10.8-6.8 20.9 1.8 10 9.7 46.9 12.2 59.1 2.6 12.3 32.5 11.8 28.8 4.4z"/>
    </g>
    <circle cx="112.8" cy="70.7" r="3.8" fill="#2D4F8E"/>
    <circle cx="114.5" cy="69.4" r="1" fill="#FFF"/>
    <circle cx="138.1" cy="68.4" r="3.3" fill="#2D4F8E"/>
    <circle cx="139.6" cy="67.4" r=".8" fill="#FFF"/>
    <path fill="url(#b)" d="M113.9 59.7s-2.9-1.3-5.6.5c-2.8 1.7-2.7 3.5-2.7 3.5s-1.5-3.3 2.4-4.9c4-1.6 5.9 1 5.9 1z"/>
    <path fill="url(#c)" d="M140 59.5s-2-1.2-3.6-1.2c-3.2 0-4.1 1.5-4.1 1.5s.5-3.4 4.7-2.8a4.2 4.2 0 013 2.5z"/>
    <path fill="#FDD20A" d="M124.4 85.3c.4-2.3 6.3-6.6 10.5-6.9 4.2-.3 5.5-.2 9-1 3.5-.9 12.5-3.1 15-4.3 2.5-1.1 13.1.6 5.7 4.8-3.3 1.8-12 5-18.2 7-6.2 1.8-10-1.8-12 1.2-1.7 2.5-.4 5.8 7 6.5 10 1 19.7-4.5 20.7-1.6 1.1 2.9-8.6 6.5-14.5 6.6-5.9 0-17.8-4-19.5-5.2-1.8-1.2-4.2-4-3.7-7.1z"/>
    <path fill="#65BC46" d="M129 115.6s-14.2-7.5-14.4-4.5c-.2 3 0 15.5 1.7 16.5 1.6 1 13.4-6.1 13.4-6.1l-.7-6zm5.3-.5s9.7-7.3 11.8-6.8c2.1.5 2.6 15.5.7 16.2a50 50 0 01-12.9-3.8l.4-5.6z"/>
    <path fill="#43A244" d="M125.5 116.4c0 5-.7 7 1.4 7.5 2.2.5 6.1 0 7.6-1 1.4-.9.2-7.2-.3-8.4-.4-1.2-8.7-.2-8.7 1.9z"/>
    <path fill="#65BC46" d="M126.4 115.3c0 5-.7 7 1.4 7.5 2.1.5 6.1 0 7.6-1 1.4-.9.2-7.2-.3-8.4-.4-1.2-8.7-.2-8.7 1.9z"/>
  </g>
  <circle cx="104.8" cy="60.2" r="53.1" fill="none" stroke="#FFF" stroke-width="3.9"/>
  <g fill="#4C4C4C" transform="translate(-22.5 -18.8)">
    <use xlink:href="#d"/>
    <use x="81.7" xlink:href="#d"/>
    <path d="M196.7 181c-9.4 0-12.8-6.7-12.8-12.5 0-3.8 1.3-7.1 3.6-9.5 2.3-2.3 5.5-3.5 9.2-3.5 3.4 0 6.5 1.3 9 3.6L204 161a11.1 11.1 0 00-7.3-2.9c-6.9 0-10 5.4-10 10.4s3.1 9.9 10 9.9c2.6 0 5-.9 6.9-2.5v-6.1H196v-2.6h10.3v9.7a12.5 12.5 0 01-9.5 4.1zm21.8-.1c-5.2 0-9-3.7-9-9 0-5.2 3.8-9 9-9s9 3.8 9 9c0 5.3-3.8 9-9 9zm0-15.6c-3.7 0-6.3 2.8-6.3 6.7 0 3.7 2.6 6.4 6.3 6.4 3.7 0 6.3-2.6 6.3-6.4 0-3.9-2.7-6.7-6.3-6.7z"/>
  </g>
</svg>