<svg xmlns="http://www.w3.org/2000/svg" viewBox="0 0 272 92">
  <path fill="#EA4335"
    d="M115.8 47.2c0 12.7-10 22.2-22.3 22.2s-22.3-9.5-22.3-22.2c0-12.9 10-22.2 22.3-22.2s22.3 9.3 22.3 22.2zm-9.8 0c0-8-5.8-13.5-12.5-13.5S81 39.2 81 47.2c0 7.9 5.8 13.4 12.5 13.4S106 55.1 106 47.2z" />
  <path fill="#FBBC05"
    d="M163.8 47.2c0 12.7-10 22.2-22.3 22.2s-22.3-9.5-22.3-22.2c0-12.9 10-22.2 22.3-22.2s22.3 9.3 22.3 22.2zm-9.8 0c0-8-5.8-13.5-12.5-13.5S129 39.2 129 47.2c0 7.9 5.8 13.4 12.5 13.4S154 55.1 154 47.2z" />
  <path fill="#4285F4"
    d="M209.8 26.3v39.9c0 16.3-9.7 23-21.1 23a21.1 21.1 0 01-19.7-13l8.5-3.6c1.5 3.6 5.2 7.9 11.2 7.9 7.3 0 11.8-4.5 11.8-13v-3.2h-.3c-2.2 2.7-6.4 5-11.7 5a22 22 0 01-21.3-22A22 22 0 01188.5 25c5.3 0 9.5 2.4 11.7 5h.3v-3.6h9.3zm-8.6 21c0-7.8-5.2-13.6-11.8-13.6-6.8 0-12.4 5.8-12.4 13.6 0 7.7 5.6 13.3 12.3 13.3 6.7 0 11.9-5.6 11.9-13.3z" />
  <path fill="#34A853" d="M225 3v65h-9.5V3h9.5z" />
  <path fill="#EA4335"
    d="M262 54.5l7.6 5a22 22 0 01-18.5 9.8c-12.6 0-22-9.7-22-22.1C229 34 238.6 25 250 25 261.4 25 267 34 269 39l1 2.5L240.4 54c2.2 4.5 5.7 6.7 10.7 6.7 5 0 8.4-2.4 11-6.1zm-23.3-8l19.9-8.2c-1.1-2.8-4.4-4.7-8.3-4.7-5 0-11.8 4.3-11.6 12.9z" />
  <path fill="#4285F4"
    d="M35.3 41.4V32H67c.3 1.6.5 3.6.5 5.7 0 7-2 15.8-8.2 22-6 6.3-13.8 9.6-24 9.6A35 35 0 01.3 35 35 35 0 0135.4.5c10.5 0 18 4 23.6 9.5l-6.6 6.6a24.7 24.7 0 00-41.7 18.3c0 13.9 10.8 25 24.7 25A23 23 0 0052.7 53c2.6-2.6 4.4-6.4 5-11.6H35.4z" />
</svg>